<mxfile host="app.diagrams.net" modified="2024-03-04T01:32:57.598Z" agent="Mozilla/5.0 (Windows NT 10.0; Win64; x64) AppleWebKit/537.36 (KHTML, like Gecko) Chrome/122.0.0.0 Safari/537.36" version="24.0.1" etag="aTL6clPjts4cxsaJP89a" type="github">
  <diagram name="PÃ¡gina-1" id="BdfYclRREeAKozCdKg15">
    <mxGraphModel>
      <root>
        <mxCell id="0" />
        <mxCell id="1" parent="0" />
      </root>
    </mxGraphModel>
  </diagram>
</mxfile>
